<svg width="65.999985" height="71.000015" viewBox="0 0 66 71" fill="none" xmlns="http://www.w3.org/2000/svg" xmlns:xlink="http://www.w3.org/1999/xlink">
		<path d="M65.0955 0C65.6869 2.68962 66 5.49625 66 8.38213C66 18.0253 62.5041 26.7834 56.8111 33.2487C58.3283 35.2343 59.4683 37.4245 60.1515 39.7554L60.2168 39.7554C61.2534 43.8305 61.8169 48.2098 61.8169 52.7695C61.8169 52.8049 61.8168 52.8403 61.8168 52.8758C61.8168 52.9125 61.8169 52.9492 61.8169 52.986C61.8169 56.6905 61.4449 60.276 60.7495 63.6761L60.6954 63.6761C60.1849 66.1983 59.5313 68.6449 58.7467 71L7.25331 71C6.46866 68.6449 5.81508 66.1983 5.30458 63.676L5.25056 63.676C4.55513 60.276 4.18321 56.6905 4.18321 52.9859C4.18321 52.9539 4.18324 52.9219 4.18329 52.8899C4.1832 52.8498 4.18317 52.8096 4.18317 52.7695C4.18317 48.2098 4.7466 43.8305 5.78322 39.7554L5.84834 39.7554C6.51823 37.4697 7.62743 35.3195 9.10077 33.3646C3.45984 26.9092 0 18.1919 0 8.5986C0 5.71272 0.313095 2.9061 0.90448 0.216482C9.40111 5.88929 15.3637 15.5913 16.5254 26.8655C20.075 24.783 24.2632 23.3563 28.8112 22.8082C30.1775 22.6436 31.5762 22.5582 32.9999 22.5582C39.1536 22.5582 44.8417 24.1527 49.454 26.8535C50.5643 15.4922 56.5475 5.70708 65.0955 0Z" clip-rule="evenodd" fill-rule="evenodd" fill="#000000" fill-opacity="1.000000"/>
</svg>
