<svg width="65.999985" height="71.000008" viewBox="0 0 66 71" fill="none" xmlns="http://www.w3.org/2000/svg" xmlns:xlink="http://www.w3.org/1999/xlink">
	<desc>
			Created with Pixso.
	</desc>
	<g id="合并">
		<path d="M66 8.38213C66 5.49625 65.6869 2.68963 65.0955 0C56.5475 5.70708 50.5643 15.4922 49.454 26.8535C44.8417 24.1527 39.1536 22.5582 32.9999 22.5582C31.5762 22.5582 30.1775 22.6436 28.8112 22.8082C24.2632 23.3563 20.075 24.783 16.5254 26.8655C15.3637 15.5913 9.40111 5.88929 0.90448 0.216484C0.313095 2.90611 0 5.71272 0 8.59859C0 18.1919 3.45984 26.9092 9.10077 33.3646C7.62743 35.3195 6.51823 37.4697 5.84834 39.7554L5.78322 39.7554C4.7466 43.8305 4.18317 48.2098 4.18317 52.7695C4.18317 52.8096 4.1832 52.8498 4.18329 52.8899C4.18324 52.9219 4.18321 52.9539 4.18321 52.9859C4.18321 56.6905 4.55513 60.276 5.25056 63.676L5.30458 63.676C5.81508 66.1983 6.46866 68.6449 7.25331 71L58.7467 71C59.5313 68.6449 60.1849 66.1983 60.6954 63.6761L60.7495 63.6761C61.4449 60.276 61.8169 56.6905 61.8169 52.986C61.8169 52.9492 61.8168 52.9125 61.8168 52.8758C61.8168 52.8403 61.8169 52.8049 61.8169 52.7695C61.8169 48.2098 61.2534 43.8305 60.2168 39.7554L60.1515 39.7554C59.4683 37.4245 58.3283 35.2343 56.8111 33.2487C62.5041 26.7834 66 18.0253 66 8.38213ZM20.9155 40.4366C23.7026 40.4366 25.9688 42.6667 26.027 45.4398C25.9701 48.2141 23.7033 50.4455 20.9154 50.4455C18.1284 50.4455 15.8622 48.2155 15.8039 45.4424C15.8608 42.6681 18.1276 40.4366 20.9155 40.4366ZM45.0845 50.4455C47.8718 50.4455 50.1381 48.215 50.196 45.4416C50.1387 42.6677 47.8721 40.4366 45.0845 40.4366C42.2972 40.4366 40.0309 42.667 39.9729 45.4404C40.0302 48.2144 42.2968 50.4455 45.0845 50.4455Z" clip-rule="evenodd" fill-rule="evenodd" fill="#000000" fill-opacity="1.000000"/>
	</g>
	<defs/>
</svg>
